<svg width="154" height="32" viewBox="0 0 154 32" fill="none" xmlns="http://www.w3.org/2000/svg">
<path d="M21.6453 31.6434C19.7151 31.6434 18.1201 31.3619 16.8601 30.7989C15.6002 30.2092 14.5949 29.4049 13.8442 28.3862C13.0936 27.3675 12.5307 26.1746 12.1554 24.8074C11.78 23.4402 11.5254 21.9658 11.3913 20.3841H9.50139V31H0.695039V3.33439H12.0749C16.4714 3.33439 19.6347 4.11181 21.5649 5.66666C23.5218 7.19471 24.5003 9.27231 24.5003 11.8995C24.5003 13.4811 24.0714 14.9019 23.2136 16.1619C22.3557 17.3951 20.9751 18.4272 19.0718 19.2582C19.179 19.848 19.2728 20.3305 19.3532 20.7058C19.4337 21.0811 19.5543 21.4966 19.7151 21.9524C20.0636 22.9175 20.4926 23.5877 21.0019 23.963C21.5381 24.3383 22.2619 24.5259 23.1733 24.5259C23.7631 24.5259 24.3529 24.4455 24.9427 24.2847L25.4252 30.8794C24.889 31.0938 24.3127 31.2681 23.6961 31.4021C23.1063 31.563 22.4227 31.6434 21.6453 31.6434ZM9.50139 14.8751H11.0294C13.0132 14.8751 14.4072 14.6607 15.2114 14.2317C16.0425 13.776 16.458 13.012 16.458 11.9397C16.458 11.0282 16.1229 10.3714 15.4527 9.96931C14.7825 9.54039 13.7236 9.32592 12.276 9.32592H9.50139V14.8751ZM40.1741 25.6921C40.9515 25.6921 41.7691 25.6116 42.627 25.4508C43.5116 25.2899 44.4097 24.9951 45.3212 24.5661L46.2862 29.7534C45.2944 30.2628 44.2086 30.6515 43.0291 30.9196C41.8764 31.1877 40.5494 31.3217 39.0482 31.3217C36.3406 31.3217 34.0619 30.8794 32.2122 29.9947C30.3892 29.1101 29.0086 27.8903 28.0704 26.3354C27.1321 24.7806 26.663 22.9845 26.663 20.9471C26.663 18.8561 27.1589 17.0332 28.1508 15.4783C29.1695 13.9235 30.5233 12.7171 32.2122 11.8593C33.9011 11.0014 35.7642 10.5725 37.8016 10.5725C40.8309 10.5725 43.1497 11.5242 44.7582 13.4275C46.3667 15.3041 47.1709 17.9848 47.1709 21.4698L35.1878 22.9979C36.0725 24.794 37.7346 25.6921 40.1741 25.6921ZM34.5444 19.2984L40.8577 17.9714C40.7504 17.1136 40.4556 16.4836 39.973 16.0815C39.4905 15.6526 38.8873 15.4381 38.1635 15.4381C37.0912 15.4381 36.2333 15.8134 35.5899 16.564C34.9734 17.2878 34.6249 18.1993 34.5444 19.2984ZM50.1742 31V3.33439H59.5033V14.3524H62.3583L67.7467 3.33439H77.7996L70.4811 17.0466L78.8049 31H68.189L62.2377 20.3439H59.5033V31H50.1742ZM87.2569 31.3217C85.4608 31.3217 83.9997 31 82.8738 30.3566C81.7747 29.7132 80.9705 28.842 80.4611 27.7429C79.9518 26.6437 79.6971 25.4106 79.6971 24.0434V10.854H88.1817V22.8772C88.1817 23.4938 88.356 23.9764 88.7045 24.3249C89.0798 24.6466 89.5221 24.8074 90.0315 24.8074C90.5676 24.8074 91.1172 24.6466 91.6802 24.3249L92.1225 29.9143C91.5327 30.37 90.7687 30.7185 89.8304 30.9598C88.8922 31.2011 88.0343 31.3217 87.2569 31.3217ZM83.9595 8.64232C82.7264 8.64232 81.6675 8.25361 80.7828 7.47619C79.8981 6.67196 79.4558 5.69347 79.4558 4.54074C79.4558 3.7365 79.6703 3.0395 80.0992 2.44973C80.5281 1.83315 81.0911 1.35061 81.7881 1.00211C82.4851 0.653611 83.2089 0.47936 83.9595 0.47936C84.7906 0.47936 85.5412 0.667015 86.2114 1.04232C86.9084 1.41763 87.4579 1.91358 87.8601 2.53016C88.289 3.14673 88.5034 3.81693 88.5034 4.54074C88.5034 5.34497 88.2756 6.05538 87.8198 6.67196C87.3909 7.28853 86.828 7.77107 86.131 8.11957C85.4608 8.46807 84.737 8.64232 83.9595 8.64232ZM103.926 31.3217C101.674 31.3217 99.7308 30.8794 98.0955 29.9947C96.4602 29.1101 95.2003 27.9037 94.3156 26.3757C93.4309 24.8208 92.9886 23.0381 92.9886 21.0275C92.9886 19.0437 93.4443 17.261 94.3558 15.6794C95.2673 14.0977 96.5406 12.8511 98.1759 11.9397C99.838 11.0282 101.755 10.5725 103.926 10.5725C106.527 10.5725 108.577 11.1086 110.079 12.1809L109.194 17.6497C108.524 17.3548 107.894 17.1538 107.304 17.0466C106.714 16.9125 106.151 16.8455 105.615 16.8455C104.301 16.8455 103.256 17.2208 102.479 17.9714C101.728 18.6952 101.353 19.6871 101.353 20.9471C101.353 22.1802 101.728 23.1855 102.479 23.963C103.229 24.7136 104.221 25.0889 105.454 25.0889C106.527 25.0889 107.786 24.861 109.234 24.4053L109.998 30.0349C109.113 30.4638 108.189 30.7855 107.224 31C106.285 31.2145 105.186 31.3217 103.926 31.3217ZM121.563 31H113.079V4.50053L121.563 3.25396V17.0466L131.013 9.36613L135.356 14.9556L129.686 19.7005C130.061 21.6039 130.611 22.9443 131.335 23.7217C132.059 24.4723 132.997 24.8476 134.15 24.8476C134.632 24.8476 135.209 24.7672 135.879 24.6063L135.276 31.0804C134.766 31.1877 134.31 31.2547 133.908 31.2815C133.506 31.3083 133.118 31.3217 132.742 31.3217C130.088 31.3217 127.984 30.6917 126.429 29.4317C124.901 28.145 123.775 26.2684 123.051 23.8021L121.563 25.0889V31ZM144.724 31.3217C143.518 31.3217 142.298 31.2011 141.065 30.9598C139.832 30.7185 138.719 30.3834 137.728 29.9545L138.894 24.8878C139.51 25.2095 140.355 25.491 141.427 25.7323C142.499 25.9467 143.451 26.054 144.282 26.054C145.622 26.054 146.293 25.6921 146.293 24.9683C146.293 24.6198 146.078 24.3651 145.649 24.2042C145.247 24.0434 144.711 23.9093 144.041 23.8021C143.397 23.6681 142.7 23.5072 141.95 23.3196C141.199 23.1051 140.489 22.7968 139.819 22.3947C139.175 21.9658 138.639 21.3626 138.21 20.5852C137.808 19.8078 137.607 18.7891 137.607 17.5291C137.607 15.4113 138.438 13.7224 140.1 12.4624C141.789 11.2025 144.094 10.5725 147.016 10.5725C148.142 10.5725 149.188 10.6529 150.153 10.8138C151.145 10.9746 152.083 11.3097 152.968 11.819L152.123 16.7249C150.702 16.1351 149.215 15.8402 147.66 15.8402C146.668 15.8402 145.944 15.9206 145.488 16.0815C145.059 16.2423 144.845 16.5104 144.845 16.8857C144.845 17.1806 145.059 17.4085 145.488 17.5693C145.917 17.7302 146.467 17.891 147.137 18.0518C147.834 18.1859 148.558 18.3869 149.308 18.655C150.059 18.8963 150.77 19.2448 151.44 19.7005C152.137 20.1563 152.7 20.7728 153.129 21.5503C153.558 22.3009 153.772 23.2794 153.772 24.4857C153.772 26.6303 152.981 28.3058 151.399 29.5122C149.818 30.7185 147.593 31.3217 144.724 31.3217Z" fill="#FF0505"/>
</svg>
