<svg width="65" height="74" viewBox="0 0 65 74" fill="none" xmlns="http://www.w3.org/2000/svg">
<path d="M54.9728 73.6659C49.9751 73.6659 45.845 72.9371 42.5826 71.4794C39.3202 69.9523 36.7172 67.8699 34.7736 65.2322C32.8301 62.5945 31.3724 59.5057 30.4006 55.9656C29.4288 52.4255 28.7694 48.6078 28.4223 44.5125H23.5287V72H0.726569V0.365829H30.1924C41.5761 0.365829 49.7668 2.3788 54.7646 6.40475C59.8317 10.3613 62.3653 15.7408 62.3653 22.5433C62.3653 26.6386 61.2547 30.3175 59.0335 33.5799C56.8122 36.7729 53.2375 39.4453 48.3092 41.5971C48.5868 43.1242 48.8297 44.3736 49.038 45.3454C49.2462 46.3172 49.5586 47.3931 49.9751 48.5731C50.8774 51.072 51.988 52.8073 53.3069 53.7791C54.6951 54.7509 56.5693 55.2368 58.9293 55.2368C60.4564 55.2368 61.9835 55.0285 63.5106 54.6121L64.76 71.6876C63.3718 72.2429 61.8794 72.6941 60.2829 73.0412C58.7558 73.4577 56.9858 73.6659 54.9728 73.6659ZM23.5287 30.2481H27.4853C32.6218 30.2481 36.2313 29.6928 38.3137 28.5822C40.4655 27.4022 41.5414 25.4239 41.5414 22.6474C41.5414 20.2873 40.6737 18.5867 38.9384 17.5455C37.2031 16.4349 34.4613 15.8796 30.713 15.8796H23.5287V30.2481Z" fill="#080808" fill-opacity="0.3"/>
</svg>
